<svg width="2000" height="1500" xmlns="http://www.w3.org/2000/svg" version="1.1">
<circle cx="50.000000" cy="50.000000" r="10" stroke="black" fill="black" />
<circle cx="1050.000000" cy="1050.000000" r="10" stroke="black" fill="black" />
<line x1="50.000000" y1="50.000000" x2="50.000000" y2="1050.000000" stroke="black" />
<line x1="50.000000" y1="1050.000000" x2="1050.000000" y2="1050.000000" stroke="black" />
<line x1="50.000000" y1="50.000000" x2="1050.000000" y2="1050.000000" stroke="black" />
<circle cx="161.111111" cy="377.281411" r="6" stroke="black" fill="black" />
<line x1="161.111111" y1="377.281411" x2="50.000000" y2="50.000000" stroke="black" />
<circle cx="272.222222" cy="528.357799" r="6" stroke="black" fill="black" />
<line x1="272.222222" y1="528.357799" x2="161.111111" y2="377.281411" stroke="black" />
<circle cx="383.333333" cy="639.396649" r="6" stroke="black" fill="black" />
<line x1="383.333333" y1="639.396649" x2="272.222222" y2="528.357799" stroke="black" />
<circle cx="494.444444" cy="722.605976" r="6" stroke="black" fill="black" />
<line x1="494.444444" y1="722.605976" x2="383.333333" y2="639.396649" stroke="black" />
<circle cx="605.555556" cy="817.747734" r="6" stroke="black" fill="black" />
<line x1="605.555556" y1="817.747734" x2="494.444444" y2="722.605976" stroke="black" />
<circle cx="716.666667" cy="898.980987" r="6" stroke="black" fill="black" />
<line x1="716.666667" y1="898.980987" x2="605.555556" y2="817.747734" stroke="black" />
<circle cx="827.777778" cy="962.693258" r="6" stroke="black" fill="black" />
<line x1="827.777778" y1="962.693258" x2="716.666667" y2="898.980987" stroke="black" />
<circle cx="938.888889" cy="1015.721610" r="6" stroke="black" fill="black" />
<line x1="938.888889" y1="1015.721610" x2="827.777778" y2="962.693258" stroke="black" />
<circle cx="1050.000000" cy="1050.000000" r="6" stroke="black" fill="black" />
<line x1="1050.000000" y1="1050.000000" x2="938.888889" y2="1015.721610" stroke="black" />
</svg>